<?xml version="1.0" encoding="utf-8"?>
<!-- Generator: Adobe Illustrator 19.0.0, SVG Export Plug-In . SVG Version: 6.00 Build 0)  -->
<svg version="1.1" id="Layer_1" xmlns="http://www.w3.org/2000/svg" xmlns:xlink="http://www.w3.org/1999/xlink" x="0px" y="0px"
	 viewBox="0 0 408.6 113.2" style="enable-background:new 0 0 408.6 113.2;" xml:space="preserve">
<style type="text/css">
	.st0{fill:#312783;}
	.st1{fill:#009FE3;}
	.st2{fill:none;stroke:#009FE3;stroke-width:2.135;stroke-miterlimit:10;}
</style>
<rect id="XMLID_112_" x="1" y="73.3" class="st0" width="2.7" height="17"/>
<polyline id="XMLID_111_" class="st0" points="8.6,78 8.6,90.3 6.2,90.3 6.2,73.3 9.5,73.3 12.3,83.5 12.3,73.3 14.7,73.3 
	14.7,90.3 11.9,90.3 8.6,78 "/>
<polyline id="XMLID_110_" class="st0" points="16.4,73.3 24.7,73.3 24.7,75.7 21.9,75.7 21.9,90.3 19.2,90.3 19.2,75.7 16.4,75.7 
	16.4,73.3 "/>
<polyline id="XMLID_109_" class="st0" points="29.1,80.5 32.8,80.5 32.8,82.9 29.1,82.9 29.1,87.9 33.7,87.9 33.7,90.3 26.5,90.3 
	26.5,73.3 33.7,73.3 33.7,75.7 29.1,75.7 29.1,80.5 "/>
<path id="XMLID_242_" class="st0" d="M41.6,90.3c-0.1-0.4-0.2-0.7-0.2-2.1v-2.7c0-1.6-0.5-2.2-1.8-2.2h-0.9v6.9H36v-17h4
	c2.8,0,4,1.3,4,3.9v1.3c0,1.8-0.6,2.9-1.8,3.5c1.3,0.6,1.8,1.8,1.8,3.6v2.6c0,0.8,0,1.4,0.3,2.1H41.6 M38.7,75.7v5.2h1
	c1,0,1.6-0.4,1.6-1.8v-1.7c0-1.2-0.4-1.8-1.4-1.8H38.7z"/>
<polyline id="XMLID_106_" class="st0" points="48.8,78 48.8,90.3 46.4,90.3 46.4,73.3 49.7,73.3 52.5,83.5 52.5,73.3 54.9,73.3 
	54.9,90.3 52.1,90.3 48.8,78 "/>
<path id="XMLID_238_" class="st0" d="M66,90.3h-2.7l-0.5-3.1h-3.3l-0.5,3.1h-2.5l2.7-17h3.9L66,90.3 M59.9,84.9h2.6l-1.3-8.6
	L59.9,84.9z"/>
<polyline id="XMLID_103_" class="st0" points="67.1,73.3 75.4,73.3 75.4,75.7 72.6,75.7 72.6,90.3 69.9,90.3 69.9,75.7 67.1,75.7 
	67.1,73.3 "/>
<rect id="XMLID_102_" x="77.1" y="73.3" class="st0" width="2.7" height="17"/>
<path id="XMLID_233_" class="st0" d="M82.2,77.4c0-2.7,1.4-4.3,4.1-4.3c2.6,0,4.1,1.6,4.1,4.3v8.9c0,2.7-1.4,4.3-4.1,4.3
	c-2.6,0-4.1-1.6-4.1-4.3V77.4 M84.8,86.4c0,1.2,0.5,1.7,1.4,1.7c0.9,0,1.4-0.5,1.4-1.7v-9.2c0-1.2-0.5-1.7-1.4-1.7
	c-0.9,0-1.4,0.5-1.4,1.7V86.4z"/>
<polyline id="XMLID_99_" class="st0" points="95,78 95,90.3 92.6,90.3 92.6,73.3 95.9,73.3 98.7,83.5 98.7,73.3 101.1,73.3 
	101.1,90.3 98.3,90.3 95,78 "/>
<path id="XMLID_229_" class="st0" d="M112.3,90.3h-2.7l-0.5-3.1h-3.3l-0.5,3.1h-2.5l2.7-17h3.9L112.3,90.3 M106.2,84.9h2.6l-1.3-8.6
	L106.2,84.9z"/>
<polyline id="XMLID_96_" class="st0" points="114.1,73.3 116.8,73.3 116.8,87.9 121.2,87.9 121.2,90.3 114.1,90.3 114.1,73.3 "/>
<path id="XMLID_95_" class="st0" d="M135.1,84v2.3c0,2.7-1.4,4.3-4,4.3c-2.6,0-4-1.6-4-4.3v-8.9c0-2.7,1.4-4.3,4-4.3
	c2.6,0,4,1.6,4,4.3V79h-2.5v-1.8c0-1.2-0.5-1.7-1.4-1.7c-0.9,0-1.4,0.5-1.4,1.7v9.2c0,1.2,0.5,1.7,1.4,1.7c0.9,0,1.4-0.4,1.4-1.7V84
	H135.1"/>
<path id="XMLID_224_" class="st0" d="M137.1,77.4c0-2.7,1.4-4.3,4.1-4.3c2.6,0,4.1,1.6,4.1,4.3v8.9c0,2.7-1.4,4.3-4.1,4.3
	c-2.6,0-4.1-1.6-4.1-4.3V77.4 M139.8,86.4c0,1.2,0.5,1.7,1.4,1.7c0.9,0,1.4-0.5,1.4-1.7v-9.2c0-1.2-0.5-1.7-1.4-1.7
	c-0.9,0-1.4,0.5-1.4,1.7V86.4z"/>
<polyline id="XMLID_92_" class="st0" points="147.6,73.3 150.2,73.3 150.2,87.9 154.6,87.9 154.6,90.3 147.6,90.3 147.6,73.3 "/>
<polyline id="XMLID_91_" class="st0" points="156.4,73.3 159.1,73.3 159.1,87.9 163.5,87.9 163.5,90.3 156.4,90.3 156.4,73.3 "/>
<polyline id="XMLID_90_" class="st0" points="167.9,80.5 171.6,80.5 171.6,82.9 167.9,82.9 167.9,87.9 172.6,87.9 172.6,90.3 
	165.3,90.3 165.3,73.3 172.6,73.3 172.6,75.7 167.9,75.7 167.9,80.5 "/>
<path id="XMLID_89_" class="st0" d="M178.8,80.8h3.7v5.4c0,2.7-1.4,4.3-4,4.3c-2.6,0-4-1.6-4-4.3v-8.9c0-2.7,1.4-4.3,4-4.3
	c2.6,0,4,1.6,4,4.3V79H180v-1.8c0-1.2-0.5-1.7-1.4-1.7c-0.9,0-1.4,0.5-1.4,1.7v9.2c0,1.2,0.5,1.7,1.4,1.7c0.9,0,1.4-0.4,1.4-1.7
	v-3.1h-1.2V80.8"/>
<polyline id="XMLID_88_" class="st0" points="187.6,80.5 191.3,80.5 191.3,82.9 187.6,82.9 187.6,87.9 192.2,87.9 192.2,90.3 
	184.9,90.3 184.9,73.3 192.2,73.3 192.2,75.7 187.6,75.7 187.6,80.5 "/>
<path id="XMLID_216_" class="st0" d="M198.6,77.4c0-2.7,1.4-4.3,4.1-4.3c2.6,0,4.1,1.6,4.1,4.3v8.9c0,2.7-1.4,4.3-4.1,4.3
	c-2.6,0-4.1-1.6-4.1-4.3V77.4 M201.3,86.4c0,1.2,0.5,1.7,1.4,1.7c0.9,0,1.4-0.5,1.4-1.7v-9.2c0-1.2-0.5-1.7-1.4-1.7
	c-0.9,0-1.4,0.5-1.4,1.7V86.4z"/>
<polyline id="XMLID_85_" class="st0" points="211.7,80.8 215.2,80.8 215.2,83.3 211.7,83.3 211.7,90.3 209.1,90.3 209.1,73.3 
	216.1,73.3 216.1,75.7 211.7,75.7 211.7,80.8 "/>
<polyline id="XMLID_84_" class="st0" points="3.6,103.4 7.3,103.4 7.3,105.8 3.6,105.8 3.6,110.8 8.3,110.8 8.3,113.2 1,113.2 
	1,96.2 8.3,96.2 8.3,98.6 3.6,98.6 3.6,103.4 "/>
<polyline id="XMLID_83_" class="st0" points="12.3,100.9 12.3,113.2 9.9,113.2 9.9,96.2 13.3,96.2 16,106.4 16,96.2 18.4,96.2 
	18.4,113.2 15.6,113.2 12.3,100.9 "/>
<path id="XMLID_82_" class="st0" d="M24.3,103.8h3.7v5.4c0,2.7-1.4,4.3-4,4.3c-2.6,0-4-1.6-4-4.3v-8.9c0-2.7,1.4-4.3,4-4.3
	c2.6,0,4,1.6,4,4.3v1.7h-2.5v-1.8c0-1.2-0.5-1.7-1.4-1.7c-0.9,0-1.4,0.5-1.4,1.7v9.2c0,1.2,0.5,1.7,1.4,1.7c0.9,0,1.4-0.4,1.4-1.7
	v-3.1h-1.2V103.8"/>
<rect id="XMLID_81_" x="29.8" y="96.2" class="st0" width="2.7" height="17"/>
<polyline id="XMLID_80_" class="st0" points="36.8,100.9 36.8,113.2 34.4,113.2 34.4,96.2 37.7,96.2 40.5,106.4 40.5,96.2 
	42.9,96.2 42.9,113.2 40.1,113.2 36.8,100.9 "/>
<polyline id="XMLID_79_" class="st0" points="47.5,103.4 51.1,103.4 51.1,105.8 47.5,105.8 47.5,110.8 52.1,110.8 52.1,113.2 
	44.8,113.2 44.8,96.2 52.1,96.2 52.1,98.6 47.5,98.6 47.5,103.4 "/>
<polyline id="XMLID_78_" class="st0" points="56.4,103.4 60.1,103.4 60.1,105.8 56.4,105.8 56.4,110.8 61,110.8 61,113.2 
	53.7,113.2 53.7,96.2 61,96.2 61,98.6 56.4,98.6 56.4,103.4 "/>
<path id="XMLID_205_" class="st0" d="M68.3,113.2c-0.1-0.4-0.2-0.7-0.2-2.1v-2.7c0-1.6-0.5-2.2-1.8-2.2h-0.9v6.9h-2.7v-17h4
	c2.8,0,4,1.3,4,3.9v1.3c0,1.8-0.6,2.9-1.8,3.5c1.3,0.6,1.8,1.8,1.8,3.6v2.6c0,0.8,0,1.4,0.3,2.1H68.3 M65.4,98.6v5.2h1
	c1,0,1.6-0.4,1.6-1.8v-1.7c0-1.2-0.4-1.8-1.4-1.8H65.4z"/>
<rect id="XMLID_75_" x="72.5" y="96.2" class="st0" width="2.7" height="17"/>
<polyline id="XMLID_74_" class="st0" points="79.5,100.9 79.5,113.2 77.1,113.2 77.1,96.2 80.4,96.2 83.2,106.4 83.2,96.2 
	85.5,96.2 85.5,113.2 82.8,113.2 79.5,100.9 "/>
<path id="XMLID_73_" class="st0" d="M91.5,103.8h3.7v5.4c0,2.7-1.4,4.3-4,4.3c-2.6,0-4-1.6-4-4.3v-8.9c0-2.7,1.4-4.3,4-4.3
	c2.6,0,4,1.6,4,4.3v1.7h-2.5v-1.8c0-1.2-0.5-1.7-1.4-1.7c-0.9,0-1.4,0.5-1.4,1.7v9.2c0,1.2,0.5,1.7,1.4,1.7c0.9,0,1.4-0.4,1.4-1.7
	v-3.1h-1.2V103.8"/>
<path id="XMLID_199_" class="st0" d="M102.6,104.2c-1.3-0.5-1.8-1.7-1.8-3.5v-0.3c0-2.7,1.3-4.2,4-4.2h3.1v2.4h-3
	c-0.9,0-1.4,0.4-1.4,1.7v1c0,1.4,0.6,1.8,1.6,1.8h1.2v-1.9h2.7v1.9h0.7v2.4h-0.7v5.6c0,0.8,0,1.4,0.3,2.1h-2.7
	c-0.1-0.3-0.2-0.6-0.2-1.3c-0.5,1-1.3,1.5-2.5,1.5c-2,0-3-1.4-3-3.9v-1.7C100.7,106.1,101.3,104.8,102.6,104.2 M104.8,111
	c0.8,0,1.3-0.4,1.4-1.5v-3.9h-1c-1.2,0-1.8,0.6-1.8,2.2v1.6C103.4,110.5,103.9,111,104.8,111z"/>
<polyline id="XMLID_70_" class="st0" points="120.2,108.3 122,96.2 125.8,96.2 125.8,113.2 123.2,113.2 123.2,101 121.4,113.2 
	118.8,113.2 116.9,101.2 116.9,113.2 114.5,113.2 114.5,96.2 118.2,96.2 120.2,108.3 "/>
<path id="XMLID_195_" class="st0" d="M136.4,113.2h-2.7l-0.5-3.1h-3.3l-0.5,3.1H127l2.7-17h3.9L136.4,113.2 M130.2,107.8h2.6
	l-1.3-8.6L130.2,107.8z"/>
<polyline id="XMLID_67_" class="st0" points="140,100.9 140,113.2 137.6,113.2 137.6,96.2 140.9,96.2 143.7,106.4 143.7,96.2 
	146.1,96.2 146.1,113.2 143.3,113.2 140,100.9 "/>
<path id="XMLID_191_" class="st0" d="M156.6,113.2h-2.7l-0.5-3.1h-3.3l-0.5,3.1h-2.5l2.7-17h3.9L156.6,113.2 M150.5,107.8h2.6
	l-1.3-8.6L150.5,107.8z"/>
<path id="XMLID_64_" class="st0" d="M161.9,103.8h3.7v5.4c0,2.7-1.4,4.3-4,4.3c-2.6,0-4-1.6-4-4.3v-8.9c0-2.7,1.4-4.3,4-4.3
	c2.6,0,4,1.6,4,4.3v1.7h-2.5v-1.8c0-1.2-0.5-1.7-1.4-1.7c-0.9,0-1.4,0.5-1.4,1.7v9.2c0,1.2,0.5,1.7,1.4,1.7c0.9,0,1.4-0.4,1.4-1.7
	v-3.1h-1.2V103.8"/>
<polyline id="XMLID_63_" class="st0" points="170,103.4 173.7,103.4 173.7,105.8 170,105.8 170,110.8 174.6,110.8 174.6,113.2 
	167.3,113.2 167.3,96.2 174.6,96.2 174.6,98.6 170,98.6 170,103.4 "/>
<polyline id="XMLID_62_" class="st0" points="182,108.3 183.8,96.2 187.5,96.2 187.5,113.2 185,113.2 185,101 183.1,113.2 
	180.6,113.2 178.6,101.2 178.6,113.2 176.3,113.2 176.3,96.2 180,96.2 182,108.3 "/>
<polyline id="XMLID_61_" class="st0" points="192.1,103.4 195.8,103.4 195.8,105.8 192.1,105.8 192.1,110.8 196.7,110.8 
	196.7,113.2 189.5,113.2 189.5,96.2 196.7,96.2 196.7,98.6 192.1,98.6 192.1,103.4 "/>
<polyline id="XMLID_60_" class="st0" points="200.8,100.9 200.8,113.2 198.4,113.2 198.4,96.2 201.7,96.2 204.5,106.4 204.5,96.2 
	206.9,96.2 206.9,113.2 204.1,113.2 200.8,100.9 "/>
<polyline id="XMLID_59_" class="st0" points="208,96.2 216.3,96.2 216.3,98.6 213.5,98.6 213.5,113.2 210.8,113.2 210.8,98.6 
	208,98.6 208,96.2 "/>
<path id="XMLID_182_" class="st1" d="M246.9,90.3h-2.7l-0.5-3.1h-3.3l-0.5,3.1h-2.5l2.7-17h3.9L246.9,90.3 M240.8,84.9h2.6l-1.3-8.6
	L240.8,84.9z"/>
<polyline id="XMLID_56_" class="st1" points="250.9,80.8 254.3,80.8 254.3,83.3 250.9,83.3 250.9,90.3 248.2,90.3 248.2,73.3 
	255.3,73.3 255.3,75.7 250.9,75.7 250.9,80.8 "/>
<polyline id="XMLID_55_" class="st1" points="259.2,80.8 262.7,80.8 262.7,83.3 259.2,83.3 259.2,90.3 256.6,90.3 256.6,73.3 
	263.6,73.3 263.6,75.7 259.2,75.7 259.2,80.8 "/>
<rect id="XMLID_54_" x="264.9" y="73.3" class="st1" width="2.7" height="17"/>
<polyline id="XMLID_53_" class="st1" points="269.5,73.3 272.2,73.3 272.2,87.9 276.6,87.9 276.6,90.3 269.5,90.3 269.5,73.3 "/>
<rect id="XMLID_52_" x="277.8" y="73.3" class="st1" width="2.7" height="17"/>
<path id="XMLID_174_" class="st1" d="M291.1,90.3h-2.7l-0.5-3.1h-3.3l-0.5,3.1h-2.5l2.7-17h3.9L291.1,90.3 M284.9,84.9h2.6l-1.3-8.6
	L284.9,84.9z"/>
<polyline id="XMLID_49_" class="st1" points="291.5,73.3 299.8,73.3 299.8,75.7 297,75.7 297,90.3 294.3,90.3 294.3,75.7 
	291.5,75.7 291.5,73.3 "/>
<polyline id="XMLID_48_" class="st1" points="303.6,80.5 307.3,80.5 307.3,82.9 303.6,82.9 303.6,87.9 308.2,87.9 308.2,90.3 
	300.9,90.3 300.9,73.3 308.2,73.3 308.2,75.7 303.6,75.7 303.6,80.5 "/>
<path id="XMLID_169_" class="st1" d="M309.9,73.3h4.2c2.7,0,4,1.5,4,4.2v8.6c0,2.7-1.3,4.2-4,4.2h-4.2V73.3 M312.6,75.7v12.2h1.5
	c0.9,0,1.4-0.4,1.4-1.7v-8.9c0-1.2-0.5-1.7-1.4-1.7H312.6z"/>
<polyline id="XMLID_45_" class="st1" points="322.8,73.3 331.1,73.3 331.1,75.7 328.3,75.7 328.3,90.3 325.6,90.3 325.6,75.7 
	322.8,75.7 322.8,73.3 "/>
<path id="XMLID_165_" class="st1" d="M332,77.4c0-2.7,1.4-4.3,4.1-4.3c2.6,0,4.1,1.6,4.1,4.3v8.9c0,2.7-1.4,4.3-4.1,4.3
	c-2.6,0-4.1-1.6-4.1-4.3V77.4 M334.7,86.4c0,1.2,0.5,1.7,1.4,1.7c0.9,0,1.4-0.5,1.4-1.7v-9.2c0-1.2-0.5-1.7-1.4-1.7
	c-0.9,0-1.4,0.5-1.4,1.7V86.4z"/>
<polyline id="XMLID_42_" class="st1" points="237.5,96.2 245.8,96.2 245.8,98.6 243,98.6 243,113.2 240.3,113.2 240.3,98.6 
	237.5,98.6 237.5,96.2 "/>
<path id="XMLID_161_" class="st1" d="M252.5,113.2c-0.1-0.4-0.2-0.7-0.2-2.1v-2.7c0-1.6-0.5-2.2-1.8-2.2h-0.9v6.9h-2.7v-17h4
	c2.8,0,4,1.3,4,3.9v1.3c0,1.8-0.6,2.9-1.8,3.5c1.3,0.6,1.8,1.8,1.8,3.6v2.6c0,0.8,0,1.4,0.3,2.1H252.5 M249.6,98.6v5.2h1
	c1,0,1.6-0.4,1.6-1.8v-1.7c0-1.2-0.4-1.8-1.4-1.8H249.6z"/>
<rect id="XMLID_39_" x="256.7" y="96.2" class="st1" width="2.7" height="17"/>
<path id="XMLID_156_" class="st1" d="M269.3,100.1v0.6c0,1.7-0.5,2.9-1.7,3.4c1.4,0.6,2,1.8,2,3.6v1.4c0,2.6-1.4,4-4.1,4h-4.2v-17h4
	C268.1,96.2,269.3,97.5,269.3,100.1 M264,98.6v4.5h1c1,0,1.6-0.4,1.6-1.8v-0.9c0-1.2-0.4-1.8-1.4-1.8H264z M264,105.6v5.2h1.5
	c0.9,0,1.4-0.4,1.4-1.7v-1.5c0-1.6-0.5-2.1-1.7-2.1H264z"/>
<polyline id="XMLID_35_" class="st1" points="273.9,113.2 271.2,113.2 271.2,96.2 273.9,96.2 273.9,103.5 276.9,103.5 276.9,96.2 
	279.6,96.2 279.6,113.2 276.9,113.2 276.9,105.9 273.9,105.9 273.9,113.2 "/>
<path id="XMLID_34_" class="st1" d="M284.1,96.2v13.1c0,1.2,0.5,1.7,1.4,1.7c0.9,0,1.4-0.4,1.4-1.7V96.2h2.5v13c0,2.7-1.4,4.3-4,4.3
	s-4-1.6-4-4.3v-13H284.1"/>
<polyline id="XMLID_33_" class="st1" points="295.3,110.1 297.3,96.2 299.8,96.2 297.2,113.2 293.2,113.2 290.6,96.2 293.3,96.2 
	295.3,110.1 "/>
<path id="XMLID_150_" class="st1" d="M309.1,113.2h-2.7l-0.5-3.1h-3.3l-0.5,3.1h-2.5l2.7-17h3.9L309.1,113.2 M303,107.8h2.6
	l-1.3-8.6L303,107.8z"/>
<polyline id="XMLID_30_" class="st1" points="312.7,100.9 312.7,113.2 310.3,113.2 310.3,96.2 313.7,96.2 316.4,106.4 316.4,96.2 
	318.8,96.2 318.8,113.2 316,113.2 312.7,100.9 "/>
<path id="XMLID_29_" class="st1" d="M327,96.2v13.1c0,1.2,0.5,1.7,1.4,1.7c0.9,0,1.4-0.4,1.4-1.7V96.2h2.5v13c0,2.7-1.4,4.3-4,4.3
	c-2.6,0-4-1.6-4-4.3v-13H327"/>
<polyline id="XMLID_28_" class="st1" points="336.5,100.9 336.5,113.2 334.1,113.2 334.1,96.2 337.5,96.2 340.2,106.4 340.2,96.2 
	342.6,96.2 342.6,113.2 339.9,113.2 336.5,100.9 "/>
<rect id="XMLID_27_" x="344.5" y="96.2" class="st1" width="2.7" height="17"/>
<polyline id="XMLID_26_" class="st1" points="353.2,110.1 355.2,96.2 357.7,96.2 355.1,113.2 351.1,113.2 348.5,96.2 351.2,96.2 
	353.2,110.1 "/>
<polyline id="XMLID_25_" class="st1" points="361.6,103.4 365.3,103.4 365.3,105.8 361.6,105.8 361.6,110.8 366.2,110.8 
	366.2,113.2 358.9,113.2 358.9,96.2 366.2,96.2 366.2,98.6 361.6,98.6 361.6,103.4 "/>
<path id="XMLID_141_" class="st1" d="M373.5,113.2c-0.1-0.4-0.2-0.7-0.2-2.1v-2.7c0-1.6-0.5-2.2-1.8-2.2h-0.9v6.9h-2.7v-17h4
	c2.8,0,4,1.3,4,3.9v1.3c0,1.8-0.6,2.9-1.8,3.5c1.3,0.6,1.8,1.8,1.8,3.6v2.6c0,0.8,0,1.4,0.3,2.1H373.5 M370.6,98.6v5.2h1
	c1,0,1.6-0.4,1.6-1.8v-1.7c0-1.2-0.4-1.8-1.4-1.8H370.6z"/>
<path id="XMLID_22_" class="st1" d="M381.3,96c2.6,0,3.9,1.6,3.9,4.3v0.5h-2.5v-0.7c0-1.2-0.5-1.7-1.3-1.7c-0.9,0-1.3,0.5-1.3,1.7
	c0,3.5,5.2,4.2,5.2,9c0,2.7-1.4,4.3-4,4.3c-2.6,0-4-1.6-4-4.3v-1h2.5v1.2c0,1.2,0.5,1.7,1.4,1.7c0.9,0,1.4-0.4,1.4-1.7
	c0-3.5-5.2-4.2-5.2-9C377.3,97.6,378.7,96,381.3,96"/>
<rect id="XMLID_21_" x="386.7" y="96.2" class="st1" width="2.7" height="17"/>
<polyline id="XMLID_20_" class="st1" points="390.6,96.2 398.9,96.2 398.9,98.6 396.1,98.6 396.1,113.2 393.4,113.2 393.4,98.6 
	390.6,98.6 390.6,96.2 "/>
<polyline id="XMLID_19_" class="st1" points="402.5,107.6 399.1,96.2 401.9,96.2 404,104 406,96.2 408.6,96.2 405.2,107.6 
	405.2,113.2 402.5,113.2 402.5,107.6 "/>
<path id="XMLID_132_" class="st0" d="M50.7,59.7H18.6c-0.8-0.6-1.8-1.4-2.7-2.7c-1.7-2.2-2.1-4.8-2.1-5V34.3c0-1.2,0.3-2.3,1-3.3
	c0.7-1,1.5-1.9,2.5-2.6c0.3-0.1,0.7-0.2,1-0.3l1-0.2c0.3,0,0.6,0,0.9-0.1c0.3,0,0.7-0.1,0.9-0.1c2.6,0,5.2,0.9,7.6,2.7
	c2.5,1.8,4.5,3.7,6.1,5.9c0.1,0.1,0.3,0.3,0.4,0.5c0.1,0.2,0.3,0.4,0.4,0.6L50.7,59.7 M52.4,1.6h5.6v51.1c-2.5-2.9-4.8-5.8-6.9-8.9
	c-0.8-1.2-1.6-2.5-2.4-3.7c-0.8-1.2-1.5-2.4-2.3-3.5c-3-4.5-6.6-7.6-10.9-9.2c-4.3-1.6-9-2.5-14.2-2.5c4.4-3.7,9-7.4,13.7-11
	c4.7-3.6,9.5-7,14.2-10.2c0.6-0.4,1.1-0.8,1.7-1.2L52.4,1.6z M14,1.6h31.5c-0.1,0.1-0.1,0.1-0.2,0.2c0,0-2.4,2.4-6.1,5.6
	c-9.1,7.9-24.6,18.7-24.6,18.7h-0.8V2.7C13.9,2.6,13.9,2.2,14,1.6z M0,1.6h5.3V49c-0.1,1.8-0.1,3.1-0.3,4.3c-0.6,3.7-2,5.5-3.2,6.4
	H0L0,1.6z"/>
<polyline id="XMLID_14_" class="st0" points="75.1,59.7 75.1,1.2 91.5,1.2 91.5,25.6 100.5,1.2 117.2,1.2 105.1,28.2 117.5,59.7 
	99.9,59.7 91.5,33.1 91.5,59.7 75.1,59.7 "/>
<path id="XMLID_128_" class="st0" d="M114.5,59.7l12.8-58.5h18.4l12.8,58.5h-15.9l-1.2-8.6h-9.7l-1.2,8.6H114.5 M133.3,39.2h6.5
	l-3.3-21.7L133.3,39.2z"/>
<polyline id="XMLID_11_" class="st0" points="181.8,59.7 165.4,59.7 165.4,16 155.7,16 155.7,1.2 191.5,1.2 191.5,16 181.8,16 
	181.8,59.7 "/>
<polyline id="XMLID_10_" class="st0" points="195.2,59.7 195.2,1.2 211.6,1.2 211.6,22.2 218.5,22.2 218.5,1.2 234.9,1.2 
	234.9,59.7 218.5,59.7 218.5,36.8 211.6,36.8 211.6,59.7 195.2,59.7 "/>
<polyline id="XMLID_9_" class="st0" points="241.5,59.7 241.5,1.2 270.5,1.2 270.5,15.4 257.8,15.4 257.8,23.8 268.9,23.8 
	268.9,37.6 257.8,37.6 257.8,59.7 241.5,59.7 "/>
<path id="XMLID_122_" class="st0" d="M272.9,30.5c0-9.7,1.9-17.2,5.8-22.5c3.8-5.3,9.2-8,16.2-8c6.9,0,12.3,2.7,16.1,8
	c3.8,5.3,5.7,12.8,5.7,22.5c0,9.7-1.9,17.2-5.7,22.4c-3.8,5.3-9.2,7.9-16.1,7.9c-7,0-12.4-2.7-16.2-8
	C274.9,47.6,272.9,40.1,272.9,30.5 M289.5,30.1c0,6.1,0.4,10.3,1.2,12.5c0.8,2.2,2.2,3.3,4.2,3.3c2,0,3.4-1.1,4.1-3.3
	c0.8-2.2,1.2-6.4,1.2-12.5c0-6.1-0.4-10.3-1.2-12.5c-0.8-2.2-2.2-3.3-4.1-3.3c-2,0-3.4,1.1-4.2,3.4C289.9,19.8,289.5,24,289.5,30.1z
	"/>
<path id="XMLID_119_" class="st0" d="M321.5,59.7V1.2h18.8c6.4,0,11.4,1.6,15,4.9c3.7,3.2,5.5,7.6,5.5,13.2c0,3.4-0.8,6.3-2.5,8.8
	c-1.6,2.4-4.1,4.3-7.4,5.8l11.6,25.9h-17.3L337.9,37v22.6H321.5 M337.9,13.3v13.9c2.2-0.1,3.8-0.6,4.9-1.7c1-1.1,1.5-2.9,1.5-5.2
	c0-2.3-0.5-4.1-1.4-5.2c-1-1.2-2.4-1.7-4.3-1.7H337.9z"/>
<path id="XMLID_116_" class="st0" d="M366.3,1.2h12.1c5.9,0,10.4,0.5,13.5,1.6c3.1,1.1,5.8,2.9,8.3,5.5c2.1,2.4,3.8,5.4,4.9,9.1
	c1.1,3.7,1.6,8.1,1.6,13c0,9.7-2.1,17-6.2,21.9c-4.1,4.9-10.3,7.4-18.4,7.4h-15.8V1.2 M382.7,15.2v29.7h0.7c2.5,0,4.2-1.1,5.3-3.2
	c1-2.1,1.5-6,1.5-11.5c0-5.7-0.5-9.6-1.6-11.8c-1-2.1-2.8-3.2-5.4-3.2H382.7z"/>
<line id="XMLID_2_" class="st2" x1="229.8" y1="72.7" x2="229.8" y2="113.4"/>
<line id="XMLID_1_" class="st2" x1="226.2" y1="72.7" x2="226.2" y2="113.4"/>
</svg>
